<svg xmlns="http://www.w3.org/2000/svg" viewBox="0 0 100 100" preserveAspectRatio="xMidYMid" width="205" height="205" style="shape-rendering: auto; display: block; background: bg-gray;" xmlns:xlink="http://www.w3.org/1999/xlink"><g><g transform="rotate(0 50 50)">
  <rect fill="#a4c639" height="10" width="1" ry="3.5" rx="0.5" y="23" x="49.5">
    <animate repeatCount="indefinite" begin="-1.0493827160493827s" dur="1.1111111111111112s" keyTimes="0;1" values="1;0" attributeName="opacity"></animate>
  </rect>
</g><g transform="rotate(20 50 50)">
  <rect fill="#a4c639" height="10" width="1" ry="3.5" rx="0.5" y="23" x="49.5">
    <animate repeatCount="indefinite" begin="-0.9876543209876544s" dur="1.1111111111111112s" keyTimes="0;1" values="1;0" attributeName="opacity"></animate>
  </rect>
</g><g transform="rotate(40 50 50)">
  <rect fill="#a4c639" height="10" width="1" ry="3.5" rx="0.5" y="23" x="49.5">
    <animate repeatCount="indefinite" begin="-0.9259259259259259s" dur="1.1111111111111112s" keyTimes="0;1" values="1;0" attributeName="opacity"></animate>
  </rect>
</g><g transform="rotate(60 50 50)">
  <rect fill="#a4c639" height="10" width="1" ry="3.5" rx="0.5" y="23" x="49.5">
    <animate repeatCount="indefinite" begin="-0.8641975308641976s" dur="1.1111111111111112s" keyTimes="0;1" values="1;0" attributeName="opacity"></animate>
  </rect>
</g><g transform="rotate(80 50 50)">
  <rect fill="#a4c639" height="10" width="1" ry="3.5" rx="0.5" y="23" x="49.5">
    <animate repeatCount="indefinite" begin="-0.8024691358024691s" dur="1.1111111111111112s" keyTimes="0;1" values="1;0" attributeName="opacity"></animate>
  </rect>
</g><g transform="rotate(100 50 50)">
  <rect fill="#a4c639" height="10" width="1" ry="3.5" rx="0.5" y="23" x="49.5">
    <animate repeatCount="indefinite" begin="-0.7407407407407408s" dur="1.1111111111111112s" keyTimes="0;1" values="1;0" attributeName="opacity"></animate>
  </rect>
</g><g transform="rotate(120 50 50)">
  <rect fill="#a4c639" height="10" width="1" ry="3.5" rx="0.5" y="23" x="49.5">
    <animate repeatCount="indefinite" begin="-0.6790123456790124s" dur="1.1111111111111112s" keyTimes="0;1" values="1;0" attributeName="opacity"></animate>
  </rect>
</g><g transform="rotate(140 50 50)">
  <rect fill="#a4c639" height="10" width="1" ry="3.5" rx="0.5" y="23" x="49.5">
    <animate repeatCount="indefinite" begin="-0.617283950617284s" dur="1.1111111111111112s" keyTimes="0;1" values="1;0" attributeName="opacity"></animate>
  </rect>
</g><g transform="rotate(160 50 50)">
  <rect fill="#a4c639" height="10" width="1" ry="3.5" rx="0.5" y="23" x="49.5">
    <animate repeatCount="indefinite" begin="-0.5555555555555556s" dur="1.1111111111111112s" keyTimes="0;1" values="1;0" attributeName="opacity"></animate>
  </rect>
</g><g transform="rotate(180 50 50)">
  <rect fill="#a4c639" height="10" width="1" ry="3.5" rx="0.5" y="23" x="49.5">
    <animate repeatCount="indefinite" begin="-0.4938271604938272s" dur="1.1111111111111112s" keyTimes="0;1" values="1;0" attributeName="opacity"></animate>
  </rect>
</g><g transform="rotate(200 50 50)">
  <rect fill="#a4c639" height="10" width="1" ry="3.5" rx="0.5" y="23" x="49.5">
    <animate repeatCount="indefinite" begin="-0.4320987654320988s" dur="1.1111111111111112s" keyTimes="0;1" values="1;0" attributeName="opacity"></animate>
  </rect>
</g><g transform="rotate(220 50 50)">
  <rect fill="#a4c639" height="10" width="1" ry="3.5" rx="0.5" y="23" x="49.5">
    <animate repeatCount="indefinite" begin="-0.3703703703703704s" dur="1.1111111111111112s" keyTimes="0;1" values="1;0" attributeName="opacity"></animate>
  </rect>
</g><g transform="rotate(240 50 50)">
  <rect fill="#a4c639" height="10" width="1" ry="3.5" rx="0.5" y="23" x="49.5">
    <animate repeatCount="indefinite" begin="-0.308641975308642s" dur="1.1111111111111112s" keyTimes="0;1" values="1;0" attributeName="opacity"></animate>
  </rect>
</g><g transform="rotate(260 50 50)">
  <rect fill="#a4c639" height="10" width="1" ry="3.5" rx="0.5" y="23" x="49.5">
    <animate repeatCount="indefinite" begin="-0.2469135802469136s" dur="1.1111111111111112s" keyTimes="0;1" values="1;0" attributeName="opacity"></animate>
  </rect>
</g><g transform="rotate(280 50 50)">
  <rect fill="#a4c639" height="10" width="1" ry="3.5" rx="0.5" y="23" x="49.5">
    <animate repeatCount="indefinite" begin="-0.1851851851851852s" dur="1.1111111111111112s" keyTimes="0;1" values="1;0" attributeName="opacity"></animate>
  </rect>
</g><g transform="rotate(300 50 50)">
  <rect fill="#a4c639" height="10" width="1" ry="3.5" rx="0.5" y="23" x="49.5">
    <animate repeatCount="indefinite" begin="-0.1234567901234568s" dur="1.1111111111111112s" keyTimes="0;1" values="1;0" attributeName="opacity"></animate>
  </rect>
</g><g transform="rotate(320 50 50)">
  <rect fill="#a4c639" height="10" width="1" ry="3.5" rx="0.5" y="23" x="49.5">
    <animate repeatCount="indefinite" begin="-0.0617283950617284s" dur="1.1111111111111112s" keyTimes="0;1" values="1;0" attributeName="opacity"></animate>
  </rect>
</g><g transform="rotate(340 50 50)">
  <rect fill="#a4c639" height="10" width="1" ry="3.5" rx="0.5" y="23" x="49.5">
    <animate repeatCount="indefinite" begin="0s" dur="1.1111111111111112s" keyTimes="0;1" values="1;0" attributeName="opacity"></animate>
  </rect>
</g><g></g></g><!-- [ldio] generated by https://loading.io --></svg>